<svg width="368" height="158" viewBox="0 0 368 158" fill="none" xmlns="http://www.w3.org/2000/svg">
<rect width="368" height="158" rx="8" fill="#F5F5F5"/>
<g opacity="0.2">
<path d="M306 13C306 11.8954 306.895 11 308 11H331V29H308C306.895 29 306 28.1046 306 27V13Z" fill="black" fill-opacity="0.45"/>
<path d="M316.475 20.208L313.625 23.0581V25.3813H324.188V26.1938H312.812V14.8188H313.625V22.0044L316.475 19.1543L318.094 20.7856L322.562 16.3169L324.188 17.9419V18.9956L322.562 17.3706L318.094 21.8394L316.475 20.208Z" fill="white"/>
<path d="M331 11H354C355.105 11 356 11.8954 356 13V27C356 28.1046 355.105 29 354 29H331V11Z" fill="black" fill-opacity="0.06"/>
<path d="M341.875 17.25V24.5625H339.438V17.25H341.875ZM341.062 23.75V18.0625H340.25V23.75H341.062ZM345.125 18.875V24.5625H342.688V18.875H345.125ZM344.312 23.75V19.6875H343.5V23.75H344.312ZM348.375 15.625V24.5625H345.938V15.625H348.375ZM347.562 23.75V16.4375H346.75V23.75H347.562ZM338.625 25.375H349.188V26.1875H337.812V14.8125H338.625V25.375Z" fill="black" fill-opacity="0.25"/>
</g>
<path opacity="0.5" d="M26.4917 80.1836V81H21.373V80.2856L23.9351 77.4336C24.2502 77.0827 24.4937 76.7855 24.6655 76.542C24.841 76.2949 24.9627 76.0747 25.0308 75.8813C25.1024 75.6844 25.1382 75.4839 25.1382 75.2798C25.1382 75.022 25.0845 74.7892 24.9771 74.5815C24.8732 74.3703 24.7192 74.202 24.5151 74.0767C24.311 73.9513 24.064 73.8887 23.7739 73.8887C23.4266 73.8887 23.1366 73.9567 22.9038 74.0928C22.6746 74.2253 22.5028 74.4115 22.3882 74.6514C22.2736 74.8913 22.2163 75.167 22.2163 75.4785H21.2227C21.2227 75.0381 21.3193 74.6353 21.5127 74.27C21.7061 73.9048 21.9925 73.6147 22.3721 73.3999C22.7516 73.1815 23.2189 73.0723 23.7739 73.0723C24.2681 73.0723 24.6906 73.16 25.0415 73.3354C25.3924 73.5073 25.661 73.7508 25.8472 74.0659C26.0369 74.3774 26.1318 74.7427 26.1318 75.1616C26.1318 75.3908 26.0924 75.6235 26.0137 75.8599C25.9385 76.0926 25.8328 76.3254 25.6968 76.5581C25.5643 76.7909 25.4085 77.02 25.2295 77.2456C25.054 77.4712 24.866 77.6932 24.6655 77.9116L22.5708 80.1836H26.4917ZM32.4644 76.4668V77.6592C32.4644 78.3001 32.4071 78.8408 32.2925 79.2812C32.1779 79.7217 32.0132 80.0762 31.7983 80.3447C31.5835 80.6133 31.3239 80.8084 31.0195 80.9302C30.7188 81.0483 30.3786 81.1074 29.999 81.1074C29.6982 81.1074 29.4207 81.0698 29.1665 80.9946C28.9123 80.9194 28.6831 80.7995 28.479 80.6348C28.2785 80.4665 28.1066 80.248 27.9634 79.9795C27.8201 79.7109 27.7109 79.3851 27.6357 79.002C27.5605 78.6188 27.5229 78.1712 27.5229 77.6592V76.4668C27.5229 75.8258 27.5802 75.2887 27.6948 74.8555C27.813 74.4222 27.9795 74.0749 28.1943 73.8135C28.4092 73.5485 28.667 73.3587 28.9678 73.2441C29.2721 73.1296 29.6123 73.0723 29.9883 73.0723C30.2926 73.0723 30.5719 73.1099 30.8262 73.1851C31.084 73.2567 31.3132 73.373 31.5137 73.5342C31.7142 73.6917 31.8843 73.903 32.0239 74.168C32.1672 74.4294 32.2764 74.7498 32.3516 75.1294C32.4268 75.509 32.4644 75.9548 32.4644 76.4668ZM31.4653 77.8203V76.3003C31.4653 75.9494 31.4438 75.6414 31.4009 75.3765C31.3615 75.1079 31.3024 74.8787 31.2236 74.689C31.1449 74.4992 31.0446 74.3452 30.9229 74.2271C30.8047 74.1089 30.6668 74.0229 30.5093 73.9692C30.3553 73.9119 30.1816 73.8833 29.9883 73.8833C29.752 73.8833 29.5425 73.9281 29.3599 74.0176C29.1772 74.1035 29.0233 74.2414 28.8979 74.4312C28.7762 74.6209 28.6831 74.8698 28.6187 75.1777C28.5542 75.4857 28.522 75.8599 28.522 76.3003V77.8203C28.522 78.1712 28.5417 78.481 28.5811 78.7495C28.624 79.0181 28.6867 79.2508 28.769 79.4478C28.8514 79.6411 28.9517 79.8005 29.0698 79.9258C29.188 80.0511 29.3241 80.1442 29.478 80.2051C29.6356 80.2624 29.8092 80.291 29.999 80.291C30.2425 80.291 30.4556 80.2445 30.6382 80.1514C30.8208 80.0583 30.973 79.9132 31.0947 79.7163C31.2201 79.5158 31.3132 79.2598 31.374 78.9482C31.4349 78.6331 31.4653 78.2572 31.4653 77.8203ZM35.0371 73.1797V81H34.0005V73.1797H35.0371ZM39.7583 73.1797L36.5088 76.8267L34.6826 78.7227L34.5107 77.6162L35.8857 76.1016L38.5122 73.1797H39.7583ZM38.7593 81L35.8643 77.1865L36.4819 76.3647L39.9946 81H38.7593Z" fill="black" fill-opacity="0.45"/>
<path opacity="0.5" d="M24.6333 102.137V110H23.6396V103.377L21.6362 104.108V103.211L24.4775 102.137H24.6333ZM32.4644 105.467V106.659C32.4644 107.3 32.4071 107.841 32.2925 108.281C32.1779 108.722 32.0132 109.076 31.7983 109.345C31.5835 109.613 31.3239 109.808 31.0195 109.93C30.7188 110.048 30.3786 110.107 29.999 110.107C29.6982 110.107 29.4207 110.07 29.1665 109.995C28.9123 109.919 28.6831 109.799 28.479 109.635C28.2785 109.466 28.1066 109.248 27.9634 108.979C27.8201 108.711 27.7109 108.385 27.6357 108.002C27.5605 107.619 27.5229 107.171 27.5229 106.659V105.467C27.5229 104.826 27.5802 104.289 27.6948 103.855C27.813 103.422 27.9795 103.075 28.1943 102.813C28.4092 102.549 28.667 102.359 28.9678 102.244C29.2721 102.13 29.6123 102.072 29.9883 102.072C30.2926 102.072 30.5719 102.11 30.8262 102.185C31.084 102.257 31.3132 102.373 31.5137 102.534C31.7142 102.692 31.8843 102.903 32.0239 103.168C32.1672 103.429 32.2764 103.75 32.3516 104.129C32.4268 104.509 32.4644 104.955 32.4644 105.467ZM31.4653 106.82V105.3C31.4653 104.949 31.4438 104.641 31.4009 104.376C31.3615 104.108 31.3024 103.879 31.2236 103.689C31.1449 103.499 31.0446 103.345 30.9229 103.227C30.8047 103.109 30.6668 103.023 30.5093 102.969C30.3553 102.912 30.1816 102.883 29.9883 102.883C29.752 102.883 29.5425 102.928 29.3599 103.018C29.1772 103.104 29.0233 103.241 28.8979 103.431C28.7762 103.621 28.6831 103.87 28.6187 104.178C28.5542 104.486 28.522 104.86 28.522 105.3V106.82C28.522 107.171 28.5417 107.481 28.5811 107.75C28.624 108.018 28.6867 108.251 28.769 108.448C28.8514 108.641 28.9517 108.8 29.0698 108.926C29.188 109.051 29.3241 109.144 29.478 109.205C29.6356 109.262 29.8092 109.291 29.999 109.291C30.2425 109.291 30.4556 109.244 30.6382 109.151C30.8208 109.058 30.973 108.913 31.0947 108.716C31.2201 108.516 31.3132 108.26 31.374 107.948C31.4349 107.633 31.4653 107.257 31.4653 106.82ZM35.0371 102.18V110H34.0005V102.18H35.0371ZM39.7583 102.18L36.5088 105.827L34.6826 107.723L34.5107 106.616L35.8857 105.102L38.5122 102.18H39.7583ZM38.7593 110L35.8643 106.187L36.4819 105.365L39.9946 110H38.7593Z" fill="black" fill-opacity="0.45"/>
<path opacity="0.5" d="M38.5591 134.467V135.659C38.5591 136.3 38.5018 136.841 38.3872 137.281C38.2726 137.722 38.1079 138.076 37.8931 138.345C37.6782 138.613 37.4186 138.808 37.1143 138.93C36.8135 139.048 36.4733 139.107 36.0938 139.107C35.793 139.107 35.5155 139.07 35.2612 138.995C35.007 138.919 34.7778 138.799 34.5737 138.635C34.3732 138.466 34.2013 138.248 34.0581 137.979C33.9149 137.711 33.8057 137.385 33.7305 137.002C33.6553 136.619 33.6177 136.171 33.6177 135.659V134.467C33.6177 133.826 33.675 133.289 33.7896 132.855C33.9077 132.422 34.0742 132.075 34.2891 131.813C34.5039 131.549 34.7617 131.359 35.0625 131.244C35.3669 131.13 35.707 131.072 36.083 131.072C36.3874 131.072 36.6667 131.11 36.9209 131.185C37.1787 131.257 37.4079 131.373 37.6084 131.534C37.8089 131.692 37.979 131.903 38.1187 132.168C38.2619 132.429 38.3711 132.75 38.4463 133.129C38.5215 133.509 38.5591 133.955 38.5591 134.467ZM37.5601 135.82V134.3C37.5601 133.949 37.5386 133.641 37.4956 133.376C37.4562 133.108 37.3971 132.879 37.3184 132.689C37.2396 132.499 37.1393 132.345 37.0176 132.227C36.8994 132.109 36.7616 132.023 36.604 131.969C36.45 131.912 36.2764 131.883 36.083 131.883C35.8467 131.883 35.6372 131.928 35.4546 132.018C35.272 132.104 35.118 132.241 34.9927 132.431C34.8709 132.621 34.7778 132.87 34.7134 133.178C34.6489 133.486 34.6167 133.86 34.6167 134.3V135.82C34.6167 136.171 34.6364 136.481 34.6758 136.75C34.7188 137.018 34.7814 137.251 34.8638 137.448C34.9461 137.641 35.0464 137.8 35.1646 137.926C35.2827 138.051 35.4188 138.144 35.5728 138.205C35.7303 138.262 35.904 138.291 36.0938 138.291C36.3372 138.291 36.5503 138.244 36.7329 138.151C36.9155 138.058 37.0677 137.913 37.1895 137.716C37.3148 137.516 37.4079 137.26 37.4688 136.948C37.5296 136.633 37.5601 136.257 37.5601 135.82Z" fill="black" fill-opacity="0.45"/>
<g clip-path="url(#clip0_12097_321677)">
<path d="M1017 117.087L1010.98 116.455L1004.96 124.17L998.939 124.961L992.919 116.756L986.898 115.582L980.878 118.969L974.858 117.411L968.837 111.027L962.817 127.829L956.797 124.622L950.776 115.311L944.756 118.359L938.736 129.598L932.715 115.604L926.695 113.293L920.674 130.975L914.654 129.033L908.634 126.12L902.613 124.87L896.593 113.429L890.573 120.903L884.552 125.081L878.532 106.18L872.512 112.345L866.491 117.727L860.471 112.217L854.451 130.787L848.43 117.11L842.41 104.817L836.39 107.459L830.369 118.894L824.349 115.07L818.328 120.354L812.308 117.554L806.288 119.654L800.268 112.194L794.247 120.143L788.227 126.609L782.206 133L776.186 130.975L770.166 124.14L764.145 101.829L758.125 106.729L752.105 114.106L746.084 104.75L740.064 115.642L734.044 107.527L728.023 112.322L722.003 112.653L715.983 112.864L709.962 110.275L703.942 101.882L697.922 97.9899L691.901 104.057L685.881 98.5545L679.861 107.618L673.84 95.3102L667.82 121.724L661.799 125.578L655.779 109.213L649.759 101.844L643.738 100.354L637.718 100.15L631.698 96.6877L625.677 99.3524L619.657 108.844L613.637 97.5307L607.616 105.246L601.596 94.8585L595.576 95.6489L589.555 107.595L583.535 106.436L577.515 107.663L571.494 101.927L565.474 102.559L559.454 96.9587L553.433 99.8718L547.413 95.9876L541.392 101.242L535.372 100.617L529.352 101.693L523.331 90.3571L517.311 92.3067L511.291 98.3738L505.27 96.4694L499.25 99.7212L493.23 93.3606L487.209 98.9835L481.189 94.2413L475.169 94.0305L469.148 96.0629L463.379 97.4931L457.358 93.6541L451.338 95.3779L445.318 93.6692L439.297 91.0195L433.277 98.6448L427.257 95.5209L421.236 96.2134L415.216 98.0803L409.196 92.5325L403.175 108.543L397.155 109.567L391.135 106.248L385.114 102.89L379.094 96.4242L373.074 104.004L367.053 93.4659L361.033 98.2082L355.013 122.883L348.992 114.37L342.972 99.6008L336.951 97.4178L330.931 92.7584L324.911 107.444L318.89 107.776L312.87 103.003L306.85 91.6067L300.829 97.1995L294.809 103.282L288.789 98.5168L282.768 89.7549L276.748 87.9709L270.728 94.7381L264.707 91.5464L258.687 91.6443L252.667 94.1058L246.646 87.0827L240.626 86.1794L234.606 96.8382L228.585 88.2871L222.565 90.884L216.545 96.7479L210.524 101.234L204.504 104.336L198.483 92.7885L192.463 89.9506L186.443 95.4231L180.422 108.016L174.402 100.316L168.382 101.897L162.361 102.506L156.341 92.4121L150.321 88.1666L144.3 89.8528L138.28 90.741L132.26 86.4504L126.239 82.7996L120.219 95.7693L114.199 109.703L108.178 101.626L102.158 93.8799L96.1376 96.6199L90.1172 86.6009L84.0969 77.9293L78.0765 74L72.0562 75.7614L66.0358 82.3329L60.0155 85.517L53.9951 83.6125L48 78.0422" stroke="black" stroke-opacity="0.25" stroke-width="2" stroke-linecap="round" stroke-linejoin="round"/>
</g>
<path d="M48 133.5H356" stroke="black" stroke-opacity="0.25" stroke-dasharray="2 2"/>
<path opacity="0.5" d="M51.9155 138.137V146H50.9219V139.377L48.9185 140.108V139.211L51.7598 138.137H51.9155ZM58.103 138.137V146H57.1094V139.377L55.106 140.108V139.211L57.9473 138.137H58.103ZM61.0894 145.474C61.0894 145.305 61.1413 145.164 61.2451 145.049C61.3525 144.931 61.5065 144.872 61.707 144.872C61.9076 144.872 62.0597 144.931 62.1636 145.049C62.271 145.164 62.3247 145.305 62.3247 145.474C62.3247 145.638 62.271 145.778 62.1636 145.893C62.0597 146.007 61.9076 146.064 61.707 146.064C61.5065 146.064 61.3525 146.007 61.2451 145.893C61.1413 145.778 61.0894 145.638 61.0894 145.474ZM61.0947 140.731C61.0947 140.563 61.1466 140.421 61.2505 140.307C61.3579 140.188 61.5119 140.129 61.7124 140.129C61.9129 140.129 62.0651 140.188 62.1689 140.307C62.2764 140.421 62.3301 140.563 62.3301 140.731C62.3301 140.896 62.2764 141.035 62.1689 141.15C62.0651 141.264 61.9129 141.322 61.7124 141.322C61.5119 141.322 61.3579 141.264 61.2505 141.15C61.1466 141.035 61.0947 140.896 61.0947 140.731ZM68.5981 141.467V142.659C68.5981 143.3 68.5409 143.841 68.4263 144.281C68.3117 144.722 68.147 145.076 67.9321 145.345C67.7173 145.613 67.4577 145.808 67.1533 145.93C66.8525 146.048 66.5124 146.107 66.1328 146.107C65.832 146.107 65.5545 146.07 65.3003 145.995C65.0461 145.919 64.8169 145.799 64.6128 145.635C64.4123 145.466 64.2404 145.248 64.0972 144.979C63.9539 144.711 63.8447 144.385 63.7695 144.002C63.6943 143.619 63.6567 143.171 63.6567 142.659V141.467C63.6567 140.826 63.714 140.289 63.8286 139.855C63.9468 139.422 64.1133 139.075 64.3281 138.813C64.543 138.549 64.8008 138.359 65.1016 138.244C65.4059 138.13 65.7461 138.072 66.1221 138.072C66.4264 138.072 66.7057 138.11 66.96 138.185C67.2178 138.257 67.4469 138.373 67.6475 138.534C67.848 138.692 68.0181 138.903 68.1577 139.168C68.3009 139.429 68.4102 139.75 68.4854 140.129C68.5605 140.509 68.5981 140.955 68.5981 141.467ZM67.5991 142.82V141.3C67.5991 140.949 67.5776 140.641 67.5347 140.376C67.4953 140.108 67.4362 139.879 67.3574 139.689C67.2786 139.499 67.1784 139.345 67.0566 139.227C66.9385 139.109 66.8006 139.023 66.6431 138.969C66.4891 138.912 66.3154 138.883 66.1221 138.883C65.8857 138.883 65.6763 138.928 65.4937 139.018C65.311 139.104 65.1571 139.241 65.0317 139.431C64.91 139.621 64.8169 139.87 64.7524 140.178C64.688 140.486 64.6558 140.86 64.6558 141.3V142.82C64.6558 143.171 64.6755 143.481 64.7148 143.75C64.7578 144.018 64.8205 144.251 64.9028 144.448C64.9852 144.641 65.0854 144.8 65.2036 144.926C65.3218 145.051 65.4578 145.144 65.6118 145.205C65.7694 145.262 65.943 145.291 66.1328 145.291C66.3763 145.291 66.5894 145.244 66.772 145.151C66.9546 145.058 67.1068 144.913 67.2285 144.716C67.3538 144.516 67.4469 144.26 67.5078 143.948C67.5687 143.633 67.5991 143.257 67.5991 142.82ZM74.7856 141.467V142.659C74.7856 143.3 74.7284 143.841 74.6138 144.281C74.4992 144.722 74.3345 145.076 74.1196 145.345C73.9048 145.613 73.6452 145.808 73.3408 145.93C73.04 146.048 72.6999 146.107 72.3203 146.107C72.0195 146.107 71.742 146.07 71.4878 145.995C71.2336 145.919 71.0044 145.799 70.8003 145.635C70.5998 145.466 70.4279 145.248 70.2847 144.979C70.1414 144.711 70.0322 144.385 69.957 144.002C69.8818 143.619 69.8442 143.171 69.8442 142.659V141.467C69.8442 140.826 69.9015 140.289 70.0161 139.855C70.1343 139.422 70.3008 139.075 70.5156 138.813C70.7305 138.549 70.9883 138.359 71.2891 138.244C71.5934 138.13 71.9336 138.072 72.3096 138.072C72.6139 138.072 72.8932 138.11 73.1475 138.185C73.4053 138.257 73.6344 138.373 73.835 138.534C74.0355 138.692 74.2056 138.903 74.3452 139.168C74.4884 139.429 74.5977 139.75 74.6729 140.129C74.748 140.509 74.7856 140.955 74.7856 141.467ZM73.7866 142.82V141.3C73.7866 140.949 73.7651 140.641 73.7222 140.376C73.6828 140.108 73.6237 139.879 73.5449 139.689C73.4661 139.499 73.3659 139.345 73.2441 139.227C73.126 139.109 72.9881 139.023 72.8306 138.969C72.6766 138.912 72.5029 138.883 72.3096 138.883C72.0732 138.883 71.8638 138.928 71.6812 139.018C71.4985 139.104 71.3446 139.241 71.2192 139.431C71.0975 139.621 71.0044 139.87 70.9399 140.178C70.8755 140.486 70.8433 140.86 70.8433 141.3V142.82C70.8433 143.171 70.863 143.481 70.9023 143.75C70.9453 144.018 71.008 144.251 71.0903 144.448C71.1727 144.641 71.2729 144.8 71.3911 144.926C71.5093 145.051 71.6453 145.144 71.7993 145.205C71.9569 145.262 72.1305 145.291 72.3203 145.291C72.5638 145.291 72.7769 145.244 72.9595 145.151C73.1421 145.058 73.2943 144.913 73.416 144.716C73.5413 144.516 73.6344 144.26 73.6953 143.948C73.7562 143.633 73.7866 143.257 73.7866 142.82Z" fill="black" fill-opacity="0.45"/>
<path opacity="0.5" d="M331.916 138.137V146H330.922V139.377L328.918 140.108V139.211L331.76 138.137H331.916ZM339.768 143.884C339.768 144.36 339.657 144.765 339.435 145.098C339.217 145.427 338.919 145.678 338.543 145.85C338.171 146.021 337.75 146.107 337.281 146.107C336.812 146.107 336.39 146.021 336.014 145.85C335.638 145.678 335.34 145.427 335.122 145.098C334.904 144.765 334.794 144.36 334.794 143.884C334.794 143.572 334.854 143.288 334.972 143.03C335.093 142.768 335.264 142.541 335.482 142.348C335.704 142.154 335.965 142.006 336.266 141.902C336.57 141.794 336.905 141.741 337.271 141.741C337.75 141.741 338.178 141.834 338.554 142.02C338.93 142.203 339.226 142.455 339.44 142.777C339.659 143.1 339.768 143.468 339.768 143.884ZM338.769 143.862C338.769 143.572 338.706 143.316 338.581 143.094C338.456 142.869 338.28 142.693 338.055 142.568C337.829 142.443 337.568 142.38 337.271 142.38C336.966 142.38 336.703 142.443 336.481 142.568C336.263 142.693 336.092 142.869 335.971 143.094C335.849 143.316 335.788 143.572 335.788 143.862C335.788 144.163 335.847 144.421 335.965 144.636C336.087 144.847 336.259 145.01 336.481 145.125C336.707 145.236 336.973 145.291 337.281 145.291C337.589 145.291 337.854 145.236 338.076 145.125C338.298 145.01 338.468 144.847 338.586 144.636C338.708 144.421 338.769 144.163 338.769 143.862ZM339.585 140.215C339.585 140.595 339.485 140.937 339.285 141.241C339.084 141.546 338.81 141.785 338.463 141.961C338.116 142.136 337.722 142.224 337.281 142.224C336.834 142.224 336.434 142.136 336.083 141.961C335.736 141.785 335.464 141.546 335.267 141.241C335.07 140.937 334.972 140.595 334.972 140.215C334.972 139.761 335.07 139.374 335.267 139.055C335.468 138.736 335.742 138.493 336.089 138.325C336.436 138.156 336.832 138.072 337.276 138.072C337.723 138.072 338.121 138.156 338.468 138.325C338.816 138.493 339.088 138.736 339.285 139.055C339.485 139.374 339.585 139.761 339.585 140.215ZM338.592 140.231C338.592 139.97 338.536 139.739 338.425 139.539C338.314 139.338 338.16 139.181 337.963 139.066C337.766 138.948 337.537 138.889 337.276 138.889C337.014 138.889 336.785 138.944 336.588 139.055C336.395 139.163 336.243 139.317 336.132 139.517C336.024 139.718 335.971 139.956 335.971 140.231C335.971 140.5 336.024 140.735 336.132 140.935C336.243 141.136 336.397 141.291 336.594 141.402C336.791 141.513 337.02 141.569 337.281 141.569C337.543 141.569 337.77 141.513 337.963 141.402C338.16 141.291 338.314 141.136 338.425 140.935C338.536 140.735 338.592 140.5 338.592 140.231ZM341.089 145.474C341.089 145.305 341.141 145.164 341.245 145.049C341.353 144.931 341.507 144.872 341.707 144.872C341.908 144.872 342.06 144.931 342.164 145.049C342.271 145.164 342.325 145.305 342.325 145.474C342.325 145.638 342.271 145.778 342.164 145.893C342.06 146.007 341.908 146.064 341.707 146.064C341.507 146.064 341.353 146.007 341.245 145.893C341.141 145.778 341.089 145.638 341.089 145.474ZM341.095 140.731C341.095 140.563 341.147 140.421 341.25 140.307C341.358 140.188 341.512 140.129 341.712 140.129C341.913 140.129 342.065 140.188 342.169 140.307C342.276 140.421 342.33 140.563 342.33 140.731C342.33 140.896 342.276 141.035 342.169 141.15C342.065 141.264 341.913 141.322 341.712 141.322C341.512 141.322 341.358 141.264 341.25 141.15C341.147 141.035 341.095 140.896 341.095 140.731ZM348.598 141.467V142.659C348.598 143.3 348.541 143.841 348.426 144.281C348.312 144.722 348.147 145.076 347.932 145.345C347.717 145.613 347.458 145.808 347.153 145.93C346.853 146.048 346.512 146.107 346.133 146.107C345.832 146.107 345.555 146.07 345.3 145.995C345.046 145.919 344.817 145.799 344.613 145.635C344.412 145.466 344.24 145.248 344.097 144.979C343.954 144.711 343.845 144.385 343.77 144.002C343.694 143.619 343.657 143.171 343.657 142.659V141.467C343.657 140.826 343.714 140.289 343.829 139.855C343.947 139.422 344.113 139.075 344.328 138.813C344.543 138.549 344.801 138.359 345.102 138.244C345.406 138.13 345.746 138.072 346.122 138.072C346.426 138.072 346.706 138.11 346.96 138.185C347.218 138.257 347.447 138.373 347.647 138.534C347.848 138.692 348.018 138.903 348.158 139.168C348.301 139.429 348.41 139.75 348.485 140.129C348.561 140.509 348.598 140.955 348.598 141.467ZM347.599 142.82V141.3C347.599 140.949 347.578 140.641 347.535 140.376C347.495 140.108 347.436 139.879 347.357 139.689C347.279 139.499 347.178 139.345 347.057 139.227C346.938 139.109 346.801 139.023 346.643 138.969C346.489 138.912 346.315 138.883 346.122 138.883C345.886 138.883 345.676 138.928 345.494 139.018C345.311 139.104 345.157 139.241 345.032 139.431C344.91 139.621 344.817 139.87 344.752 140.178C344.688 140.486 344.656 140.86 344.656 141.3V142.82C344.656 143.171 344.675 143.481 344.715 143.75C344.758 144.018 344.82 144.251 344.903 144.448C344.985 144.641 345.085 144.8 345.204 144.926C345.322 145.051 345.458 145.144 345.612 145.205C345.769 145.262 345.943 145.291 346.133 145.291C346.376 145.291 346.589 145.244 346.772 145.151C346.955 145.058 347.107 144.913 347.229 144.716C347.354 144.516 347.447 144.26 347.508 143.948C347.569 143.633 347.599 143.257 347.599 142.82ZM354.786 141.467V142.659C354.786 143.3 354.728 143.841 354.614 144.281C354.499 144.722 354.334 145.076 354.12 145.345C353.905 145.613 353.645 145.808 353.341 145.93C353.04 146.048 352.7 146.107 352.32 146.107C352.02 146.107 351.742 146.07 351.488 145.995C351.234 145.919 351.004 145.799 350.8 145.635C350.6 145.466 350.428 145.248 350.285 144.979C350.141 144.711 350.032 144.385 349.957 144.002C349.882 143.619 349.844 143.171 349.844 142.659V141.467C349.844 140.826 349.902 140.289 350.016 139.855C350.134 139.422 350.301 139.075 350.516 138.813C350.73 138.549 350.988 138.359 351.289 138.244C351.593 138.13 351.934 138.072 352.31 138.072C352.614 138.072 352.893 138.11 353.147 138.185C353.405 138.257 353.634 138.373 353.835 138.534C354.035 138.692 354.206 138.903 354.345 139.168C354.488 139.429 354.598 139.75 354.673 140.129C354.748 140.509 354.786 140.955 354.786 141.467ZM353.787 142.82V141.3C353.787 140.949 353.765 140.641 353.722 140.376C353.683 140.108 353.624 139.879 353.545 139.689C353.466 139.499 353.366 139.345 353.244 139.227C353.126 139.109 352.988 139.023 352.831 138.969C352.677 138.912 352.503 138.883 352.31 138.883C352.073 138.883 351.864 138.928 351.681 139.018C351.499 139.104 351.345 139.241 351.219 139.431C351.097 139.621 351.004 139.87 350.94 140.178C350.875 140.486 350.843 140.86 350.843 141.3V142.82C350.843 143.171 350.863 143.481 350.902 143.75C350.945 144.018 351.008 144.251 351.09 144.448C351.173 144.641 351.273 144.8 351.391 144.926C351.509 145.051 351.645 145.144 351.799 145.205C351.957 145.262 352.131 145.291 352.32 145.291C352.564 145.291 352.777 145.244 352.959 145.151C353.142 145.058 353.294 144.913 353.416 144.716C353.541 144.516 353.634 144.26 353.695 143.948C353.756 143.633 353.787 143.257 353.787 142.82Z" fill="black" fill-opacity="0.45"/>
<defs>
<clipPath id="clip0_12097_321677">
<rect width="308" height="59" fill="white" transform="translate(48 74)"/>
</clipPath>
</defs>
</svg>
